<?xml version="1.0" encoding="iso-8859-1"?>
<!-- Generator: Adobe Illustrator 19.0.0, SVG Export Plug-In . SVG Version: 6.00 Build 0)  -->
<svg version="1.1" id="Capa_1" xmlns="http://www.w3.org/2000/svg" xmlns:xlink="http://www.w3.org/1999/xlink" x="0px" y="0px"
	 viewBox="0 0 469.333 469.333" style="enable-background:new 0 0 469.333 469.333;" xml:space="preserve">
<g>
	<path style="fill:#303C42;" d="M222.708,265.005c-4.167,4.174-4.167,10.936,0,15.111c7.604,7.618,11.958,18.158,11.958,28.927
		s-4.354,21.309-11.958,28.927l-97.833,98.011c-15.208,15.236-42.542,15.236-57.75,0l-33.833-33.895
		c-7.604-7.618-11.958-18.158-11.958-28.927c0-10.77,4.354-21.309,11.958-28.927l97.833-98.011c15.208-15.236,42.542-15.236,57.75,0
		c4.167,4.174,10.917,4.174,15.083,0c4.167-4.174,4.167-10.936,0-15.111c-23.146-23.188-64.771-23.188-87.917,0l-97.833,98.011
		C6.635,340.715,0,356.765,0,373.159c0,16.394,6.635,32.444,18.208,44.038l33.833,33.895C63.615,462.686,79.635,469.333,96,469.333
		s32.385-6.647,43.958-18.241l97.833-98.011C249.365,341.488,256,325.438,256,309.043s-6.635-32.444-18.208-44.038
		C233.625,260.831,226.875,260.831,222.708,265.005z"/>
	<path style="fill:#303C42;" d="M451.125,51.285l-33.833-33.895c-23.146-23.188-64.771-23.188-87.917,0l-97.833,98.011
		c-11.573,11.594-18.208,27.644-18.208,44.038s6.635,32.444,18.208,44.038c4.167,4.174,10.917,4.174,15.083,0
		c4.167-4.174,4.167-10.936,0-15.111c-7.604-7.618-11.958-18.158-11.958-28.927c0-10.769,4.354-21.309,11.958-28.927l97.833-98.011
		c15.208-15.236,42.542-15.236,57.75,0l33.833,33.895C443.646,74.014,448,84.554,448,95.323s-4.354,21.309-11.958,28.927
		l-97.833,98.011c-15.208,15.236-42.542,15.236-57.75,0c-4.167-4.174-10.917-4.174-15.083,0c-4.167,4.174-4.167,10.936,0,15.111
		c11.573,11.594,27.594,18.241,43.958,18.241s32.385-6.647,43.958-18.241l97.833-98.011c11.573-11.594,18.208-27.644,18.208-44.038
		S462.698,62.879,451.125,51.285z"/>
	<path style="fill:#303C42;" d="M316.875,301.792c-4.167-4.167-10.917-4.167-15.083,0c-4.167,4.167-4.167,10.917,0,15.083
		l42.667,42.667c2.083,2.083,4.813,3.125,7.542,3.125c2.729,0,5.458-1.042,7.542-3.125c4.167-4.167,4.167-10.917,0-15.083
		L316.875,301.792z"/>
	<path style="fill:#303C42;" d="M152.458,167.542c2.083,2.083,4.813,3.125,7.542,3.125c2.729,0,5.458-1.042,7.542-3.125
		c4.167-4.167,4.167-10.917,0-15.083l-42.667-42.667c-4.167-4.167-10.917-4.167-15.083,0c-4.167,4.167-4.167,10.917,0,15.083
		L152.458,167.542z"/>
	<path style="fill:#303C42;" d="M394.667,266.667h-53.333c-5.896,0-10.667,4.771-10.667,10.667S335.438,288,341.333,288h53.333
		c5.896,0,10.667-4.771,10.667-10.667S400.563,266.667,394.667,266.667z"/>
	<path style="fill:#303C42;" d="M277.333,320c-5.896,0-10.667,4.771-10.667,10.667v64c0,5.896,4.771,10.667,10.667,10.667
		S288,400.563,288,394.667v-64C288,324.771,283.229,320,277.333,320z"/>
	<path style="fill:#303C42;" d="M192,149.333c5.896,0,10.667-4.771,10.667-10.667v-64C202.667,68.771,197.896,64,192,64
		c-5.896,0-10.667,4.771-10.667,10.667v64C181.333,144.563,186.104,149.333,192,149.333z"/>
	<path style="fill:#303C42;" d="M74.667,202.667h64c5.896,0,10.667-4.771,10.667-10.667c0-5.896-4.771-10.667-10.667-10.667h-64
		C68.771,181.333,64,186.104,64,192C64,197.896,68.771,202.667,74.667,202.667z"/>
</g>
<linearGradient id="SVGID_1_" gradientUnits="userSpaceOnUse" x1="-63.4117" y1="616.6021" x2="-48.6524" y2="609.7189" gradientTransform="matrix(21.3333 0 0 -21.3333 1430.1112 13315.2227)">
	<stop  offset="0" style="stop-color:#FFFFFF;stop-opacity:0.2"/>
	<stop  offset="1" style="stop-color:#FFFFFF;stop-opacity:0"/>
</linearGradient>
<path style="fill:url(#SVGID_1_);" d="M222.708,265.005c-4.167,4.174-4.167,10.936,0,15.111
	c7.604,7.617,11.958,18.158,11.958,28.927s-4.354,21.31-11.958,28.927l-97.833,98.01c-15.208,15.237-42.542,15.237-57.75,0
	l-33.833-33.895c-7.604-7.617-11.958-18.158-11.958-28.927s4.354-21.309,11.958-28.927l97.833-98.01
	c15.208-15.236,42.542-15.236,57.75,0c4.167,4.174,10.917,4.174,15.083,0c4.167-4.174,4.167-10.936,0-15.111
	c-23.146-23.188-64.771-23.188-87.917,0l-97.833,98.01C6.635,340.715,0,356.764,0,373.159s6.635,32.444,18.208,44.038l33.833,33.895
	C63.615,462.686,79.635,469.333,96,469.333s32.385-6.647,43.958-18.242l97.833-98.01C249.365,341.487,256,325.438,256,309.043
	s-6.635-32.444-18.208-44.038C233.625,260.831,226.875,260.831,222.708,265.005z M451.125,51.285l-33.833-33.895
	c-23.146-23.188-64.771-23.188-87.917,0l-97.833,98.01c-11.573,11.594-18.208,27.643-18.208,44.038s6.635,32.444,18.208,44.038
	c4.167,4.174,10.917,4.174,15.083,0c4.167-4.173,4.167-10.936,0-15.111c-7.604-7.617-11.958-18.158-11.958-28.927
	s4.354-21.309,11.958-28.927l97.833-98.01c15.208-15.236,42.542-15.236,57.75,0l33.833,33.895C443.646,74.014,448,84.553,448,95.323
	s-4.354,21.31-11.958,28.927l-97.833,98.012c-15.208,15.236-42.542,15.236-57.75,0c-4.167-4.174-10.917-4.174-15.083,0
	c-4.167,4.173-4.167,10.936,0,15.111c11.573,11.594,27.594,18.241,43.958,18.241s32.385-6.647,43.958-18.241l97.833-98.012
	c11.573-11.594,18.208-27.643,18.208-44.038S462.698,62.879,451.125,51.285z M316.875,301.792c-4.167-4.167-10.917-4.167-15.083,0
	c-4.167,4.167-4.167,10.917,0,15.083l42.667,42.667c2.083,2.083,4.813,3.125,7.542,3.125c2.729,0,5.458-1.042,7.542-3.125
	c4.167-4.167,4.167-10.917,0-15.083L316.875,301.792z M152.458,167.542c2.083,2.083,4.813,3.125,7.542,3.125
	c2.729,0,5.458-1.042,7.542-3.125c4.167-4.167,4.167-10.917,0-15.083l-42.667-42.667c-4.167-4.167-10.917-4.167-15.083,0
	c-4.167,4.167-4.167,10.917,0,15.083L152.458,167.542z M394.667,266.667h-53.333c-5.896,0-10.667,4.771-10.667,10.667
	S335.438,288,341.333,288h53.333c5.896,0,10.667-4.771,10.667-10.667S400.563,266.667,394.667,266.667z M277.333,320
	c-5.896,0-10.667,4.771-10.667,10.667v64c0,5.896,4.771,10.667,10.667,10.667S288,400.563,288,394.667v-64
	C288,324.771,283.229,320,277.333,320z M192,149.333c5.896,0,10.667-4.771,10.667-10.667v-64C202.667,68.771,197.896,64,192,64
	c-5.896,0-10.667,4.771-10.667,10.667v64C181.333,144.563,186.104,149.333,192,149.333z M74.667,202.667h64
	c5.896,0,10.667-4.771,10.667-10.667c0-5.896-4.771-10.667-10.667-10.667h-64C68.771,181.333,64,186.104,64,192
	C64,197.896,68.771,202.667,74.667,202.667z"/>
<g>
</g>
<g>
</g>
<g>
</g>
<g>
</g>
<g>
</g>
<g>
</g>
<g>
</g>
<g>
</g>
<g>
</g>
<g>
</g>
<g>
</g>
<g>
</g>
<g>
</g>
<g>
</g>
<g>
</g>
</svg>
